<svg xmlns="http://www.w3.org/2000/svg" fill="none" viewBox="0 0 333 458">
  <path stroke="#F22EA9" d="m252.164 174.533-.644.662c-3.512 3.618-6.283 7.752-7.752 12.574l-.001.001c-1.017 3.313-1.357 6.759-1.498 10.277a183.597 183.597 0 0 0-.105 4.313c-.036 2.114-.071 4.244-.208 6.331-.771 11.887-5.06 23.447-11.931 33.144a64.81 64.81 0 0 1-12.302 13.1c-5.457 4.385-11.039 6.635-17.608 8.773v.001a209.817 209.817 0 0 1-48.832 9.649l-.622.047.089-.617c5.053-34.98 11.818-70.34 27.793-101.953 10.269-20.332 25.451-39.749 46.931-47.77 12.704-4.747 26.589-5.107 40.029-4.263 8.668.542 17.437 1.596 25.707 4.418m-39.046 51.313 38.885-50.84m-38.885 50.84c4.853-4.774 10.985-8.6 17.051-11.863 1.32-.709 2.657-1.413 4.001-2.12 9.695-5.1 19.729-10.378 26.158-19.285l.001-.002c1.446-2.02 2.802-4.421 2.803-7.051m-50.014 40.321 50.014-40.321M291.21 123.22l-.161.473m.161-.473v-.001l-.161.474m.161-.473c2.562.871 5.287 2.194 7.38 3.998 2.096 1.807 3.596 4.134 3.588 6.994m-11.129-10.519c5.051 1.718 10.645 5.187 10.629 10.517h.5v.002m-11.571 24.031.002.011c-7.842 2.86-16.689 6.489-22.512 12.932l-.001.001c-4.565 5.063-4.208 11.157-1.238 15.921 2.957 4.743 8.53 8.225 14.507 8.16h.002c1.729-.025 3.441-.235 5.122-.452l.29-.037c1.59-.206 3.152-.407 4.719-.466h.001c6.196-.252 13.407 1.657 17.428 6.471 1.224 1.47 1.842 2.938 2.021 4.365.179 1.43-.078 2.852-.653 4.232-1.155 2.773-3.576 5.334-6.166 7.33-11.622 8.931-26.26 10.996-39.625 4.78-6.451-3.017-11.964-7.82-15.446-13.708l-.733-1.24-.193 1.428-9.63 71.485H149.927l-.054.438c-2.364 18.98-3.71 36.297-4.742 49.585-.159 2.039-.31 3.983-.456 5.823-4.528 56.877-7.909 82.775-34.327 106.264-25.47 20.794-51.267 19.327-68.798 6.53-17.558-12.818-26.904-37.05-19.34-61.967 3.728-10.308 10.214-18.269 17.185-23.424 6.99-5.168 14.405-7.475 19.984-6.586 2.777.442 5.088 1.671 6.696 3.722 1.61 2.054 2.556 4.982 2.501 8.89-.108 7.836-4.235 19.484-14.78 35.437l-.016.025-.013.026c-3.208 6.354-4.997 12.219-5.576 17.227-.579 5.001.044 9.187 1.708 12.144 1.679 2.982 4.406 4.685 7.907 4.681 3.466-.003 7.629-1.679 12.252-5.286 18.467-14.395 25.981-37.953 31.066-63.911 1.051-5.383 1.991-15.727 3.217-29.208l.398-4.375c1.428-15.636 3.26-34.923 6.031-55.469l.077-.566H.5v-2.74c9-.023 16.316-2.42 21.881-7.217 5.618-4.843 8.397-11.838 8.397-20.904V33.605c0-9.069-2.78-16.427-8.37-22.01C16.829 6.04 9.52 3.266.5 3.239V.5h118.246v2.74h-.998c-9.081 0-16.451 2.773-22.041 8.355-5.59 5.598-8.37 12.94-8.37 22.01V250.09c0 8.032 1.947 14.341 5.928 18.806 3.57 4.027 9.499 6.178 17.652 6.611l.458.024.064-.454c3.385-23.934 8.073-49.285 14.898-72.377 6.826-23.097 15.778-43.895 27.669-58.753 27.082-32.126 65.453-40.302 99.082-39.498 33.636.804 62.435 10.591 70.224 14.27l.213-.452-.213.452c3.883 1.833 6.756 4.116 8.179 6.731 1.404 2.578 1.437 5.547-.498 8.894-1.952 3.375-5.906 7.126-12.471 11.155-6.557 4.023-15.679 8.3-27.915 12.744Z" opacity=".2"/>
</svg>