<svg width="35" height="25" viewBox="0 0 35 25" fill="none" xmlns="http://www.w3.org/2000/svg">
<mask id="path-1-inside-1_407_1807" fill="white">
<path fill-rule="evenodd" clip-rule="evenodd" d="M15.7111 0H0V15.278H7.14396L2.85938 24.9997H11.4291L15.7139 15.2773H15.7111V0Z"/>
</mask>
<path d="M0 0V-0.8H-0.8V0H0ZM15.7111 0H16.5111V-0.8H15.7111V0ZM0 15.278H-0.8V16.078H0V15.278ZM7.14396 15.278L7.87601 15.6006L8.37078 14.478H7.14396V15.278ZM2.85938 24.9997L2.12732 24.677L1.63255 25.7997H2.85938V24.9997ZM11.4291 24.9997V25.7997H11.9507L12.1611 25.3223L11.4291 24.9997ZM15.7139 15.2773L16.446 15.6L16.9407 14.4773H15.7139V15.2773ZM15.7111 15.2773H14.9111V16.0773H15.7111V15.2773ZM0 0.8H15.7111V-0.8H0V0.8ZM0.8 15.278V0H-0.8V15.278H0.8ZM7.14396 14.478H0V16.078H7.14396V14.478ZM3.59143 25.3223L7.87601 15.6006L6.4119 14.9553L2.12732 24.677L3.59143 25.3223ZM11.4291 24.1997H2.85938V25.7997H11.4291V24.1997ZM14.9819 14.9547L10.697 24.677L12.1611 25.3223L16.446 15.6L14.9819 14.9547ZM15.7111 16.0773H15.7139V14.4773H15.7111V16.0773ZM14.9111 0V15.2773H16.5111V0H14.9111Z" fill="#801F80" mask="url(#path-1-inside-1_407_1807)"/>
<mask id="path-3-inside-2_407_1807" fill="white">
<path fill-rule="evenodd" clip-rule="evenodd" d="M35.0002 0H19.2891V15.278H26.433L22.1484 24.9997H30.7181L35.003 15.2773H35.0002V0Z"/>
</mask>
<path d="M19.2891 0V-0.8H18.4891V0H19.2891ZM35.0002 0H35.8002V-0.8H35.0002V0ZM19.2891 15.278H18.4891V16.078H19.2891V15.278ZM26.433 15.278L27.1651 15.6006L27.6598 14.478H26.433V15.278ZM22.1484 24.9997L21.4164 24.677L20.9216 25.7997H22.1484V24.9997ZM30.7181 24.9997V25.7997H31.2398L31.4502 25.3223L30.7181 24.9997ZM35.003 15.2773L35.735 15.6L36.2298 14.4773H35.003V15.2773ZM35.0002 15.2773H34.2002V16.0773H35.0002V15.2773ZM19.2891 0.8H35.0002V-0.8H19.2891V0.8ZM20.0891 15.278V0H18.4891V15.278H20.0891ZM26.433 14.478H19.2891V16.078H26.433V14.478ZM22.8805 25.3223L27.1651 15.6006L25.701 14.9553L21.4164 24.677L22.8805 25.3223ZM30.7181 24.1997H22.1484V25.7997H30.7181V24.1997ZM34.2709 14.9547L29.9861 24.677L31.4502 25.3223L35.735 15.6L34.2709 14.9547ZM35.0002 16.0773H35.003V14.4773H35.0002V16.0773ZM34.2002 0V15.2773H35.8002V0H34.2002Z" fill="#801F80" mask="url(#path-3-inside-2_407_1807)"/>
</svg>
