<svg width="97" height="30" viewBox="0 0 97 30" fill="none" xmlns="http://www.w3.org/2000/svg">
<rect width="97" height="30" fill="#F22EA9"/>
<path d="M12.136 19H11.02V10.96H17.164V19H16.048V12.004H12.136V19ZM22.7877 19.132C20.5317 19.132 18.7197 17.284 18.7197 14.98C18.7197 12.676 20.5317 10.828 22.7877 10.828C25.0437 10.828 26.8557 12.676 26.8557 14.98C26.8557 17.284 25.0437 19.132 22.7877 19.132ZM22.7877 18.04C24.4437 18.04 25.6677 16.732 25.6677 14.98C25.6677 13.228 24.4437 11.92 22.7877 11.92C21.1317 11.92 19.9077 13.228 19.9077 14.98C19.9077 16.732 21.1317 18.04 22.7877 18.04ZM29.5266 19H28.4106V10.96H34.5546V19H33.4386V12.004H29.5266V19ZM38.8703 15.484L40.8263 10.96H41.9903L38.5223 19H37.3703L38.2583 16.936L35.7863 10.96H36.9983L38.8703 15.484ZM42.3483 19.072C42.1323 19.072 41.9163 19.048 41.7723 19.012V17.896C41.9043 17.932 42.0963 17.956 42.2283 17.956C42.9123 17.956 43.2483 17.476 43.3083 15.304L43.4163 10.96H48.5283V19H47.4123V12.004H44.4603L44.3763 15.304C44.3043 18.22 43.7043 19.072 42.3483 19.072ZM53.0788 10.96H55.1908V19H54.0748V15.832H53.0788H53.0668L51.2188 19H49.9108L51.8908 15.628C50.9068 15.268 50.2708 14.44 50.2708 13.396C50.2708 11.98 51.4468 10.96 53.0788 10.96ZM53.1028 14.8H54.0748V11.992H53.1028C52.0708 11.992 51.3868 12.544 51.3868 13.396C51.3868 14.248 52.0708 14.8 53.1028 14.8ZM57.227 10.96H59.303C60.959 10.96 62.135 12.004 62.135 13.468C62.135 14.932 60.959 15.988 59.327 15.988H58.343V19H57.227V10.96ZM58.343 14.956H59.303C60.335 14.956 61.019 14.38 61.019 13.468C61.019 12.58 60.335 11.992 59.303 11.992H58.343V14.956ZM68.7018 14.416V10.96H69.8178V19H68.7018V15.46H64.7298V19H63.6138V10.96H64.7298V14.416H68.7018ZM75.44 19.132C73.184 19.132 71.372 17.284 71.372 14.98C71.372 12.676 73.184 10.828 75.44 10.828C77.696 10.828 79.508 12.676 79.508 14.98C79.508 17.284 77.696 19.132 75.44 19.132ZM75.44 18.04C77.096 18.04 78.32 16.732 78.32 14.98C78.32 13.228 77.096 11.92 75.44 11.92C73.784 11.92 72.56 13.228 72.56 14.98C72.56 16.732 73.784 18.04 75.44 18.04ZM82.179 15.376V17.956H85.407V19H81.063V10.96H85.347V12.004H82.179V14.332H84.579V15.376H82.179Z" fill="white"/>
</svg>
