<svg width="66" height="30" viewBox="0 0 66 30" fill="none" xmlns="http://www.w3.org/2000/svg">
<rect width="66" height="30" fill="#F22EA9"/>
<path d="M14.596 19.132C12.28 19.132 10.54 17.368 10.54 15.028C10.54 12.652 12.352 10.828 14.62 10.828C15.808 10.828 16.888 11.332 17.644 12.196L16.84 12.952C16.276 12.292 15.472 11.92 14.596 11.92C12.928 11.92 11.728 13.204 11.728 14.968C11.728 16.744 12.952 18.04 14.656 18.04C15.58 18.04 16.384 17.644 16.912 16.996L17.692 17.728C16.936 18.616 15.856 19.132 14.596 19.132ZM21.4685 14.812L24.8645 19H23.4485L20.2805 15.1V19H19.1645V10.96H20.2805V14.632L23.3525 10.96H24.6965L21.4685 14.812ZM27.0183 16.924L31.9383 10.96H32.5743V19H31.4823V13.036L26.5623 19H25.9263V10.96H27.0183V16.924ZM40.2736 10.96V17.956H41.2936V20.92H40.1896V19H34.8736V20.92H33.7816V17.956C34.6216 17.956 35.1136 16.696 35.1616 14.5L35.2336 10.96H40.2736ZM35.4856 17.956H39.1576V12.004H36.2776L36.2296 14.476C36.1816 16.3 35.9896 17.26 35.4856 17.956ZM44.8592 14.812L48.2552 19H46.8392L43.6712 15.1V19H42.5552V10.96H43.6712V14.632L46.7432 10.96H48.0872L44.8592 14.812ZM55.1517 19H53.9397L53.2797 17.164H50.1597L49.4997 19H48.3357L51.3717 10.96H52.1277L55.1517 19ZM52.9077 16.12L51.7197 12.82L50.5317 16.12H52.9077Z" fill="white"/>
</svg>
