<svg width="50" height="35" viewBox="0 0 50 35" fill="none" xmlns="http://www.w3.org/2000/svg">
<mask id="path-1-inside-1_319_2291" fill="white">
<path fill-rule="evenodd" clip-rule="evenodd" d="M22.4428 0H0V21.3896H10.2063L4.08594 35.0004H16.3275L22.4483 21.3888H22.4428V0Z"/>
</mask>
<path d="M0 0V-0.8H-0.8V0H0ZM22.4428 0H23.2428V-0.8H22.4428V0ZM0 21.3896H-0.8V22.1896H0V21.3896ZM10.2063 21.3896L10.936 21.7177L11.4432 20.5896H10.2063V21.3896ZM4.08594 35.0004L3.35631 34.6723L2.84904 35.8004H4.08594V35.0004ZM16.3275 35.0004V35.8004H16.8449L17.0571 35.3285L16.3275 35.0004ZM22.4483 21.3888L23.1779 21.7169L23.6852 20.5888H22.4483V21.3888ZM22.4428 21.3888H21.6428V22.1888H22.4428V21.3888ZM0 0.8H22.4428V-0.8H0V0.8ZM0.8 21.3896V0H-0.8V21.3896H0.8ZM10.2063 20.5896H0V22.1896H10.2063V20.5896ZM4.81556 35.3285L10.936 21.7177L9.47672 21.0615L3.35631 34.6723L4.81556 35.3285ZM16.3275 34.2004H4.08594V35.8004H16.3275V34.2004ZM21.7186 21.0607L15.5979 34.6723L17.0571 35.3285L23.1779 21.7169L21.7186 21.0607ZM22.4428 22.1888H22.4483V20.5888H22.4428V22.1888ZM21.6428 0V21.3888H23.2428V0H21.6428Z" fill="#F22EA9" mask="url(#path-1-inside-1_319_2291)"/>
<mask id="path-3-inside-2_319_2291" fill="white">
<path fill-rule="evenodd" clip-rule="evenodd" d="M49.9975 0H27.5547V21.3896H37.761L31.6406 35.0004H43.8822L50.0029 21.3888H49.9975V0Z"/>
</mask>
<path d="M27.5547 0V-0.8H26.7547V0H27.5547ZM49.9975 0H50.7975V-0.8H49.9975V0ZM27.5547 21.3896H26.7547V22.1896H27.5547V21.3896ZM37.761 21.3896L38.4907 21.7177L38.9979 20.5896H37.761V21.3896ZM31.6406 35.0004L30.911 34.6723L30.4037 35.8004H31.6406V35.0004ZM43.8822 35.0004V35.8004H44.3996L44.6118 35.3285L43.8822 35.0004ZM50.0029 21.3888L50.7326 21.7169L51.2398 20.5888H50.0029V21.3888ZM49.9975 21.3888H49.1975V22.1888H49.9975V21.3888ZM27.5547 0.8H49.9975V-0.8H27.5547V0.8ZM28.3547 21.3896V0H26.7547V21.3896H28.3547ZM37.761 20.5896H27.5547V22.1896H37.761V20.5896ZM32.3703 35.3285L38.4907 21.7177L37.0314 21.0615L30.911 34.6723L32.3703 35.3285ZM43.8822 34.2004H31.6406V35.8004H43.8822V34.2004ZM49.2733 21.0607L43.1525 34.6723L44.6118 35.3285L50.7326 21.7169L49.2733 21.0607ZM49.9975 22.1888H50.0029V20.5888H49.9975V22.1888ZM49.1975 0V21.3888H50.7975V0H49.1975Z" fill="#F22EA9" mask="url(#path-3-inside-2_319_2291)"/>
</svg>
