<svg width="71" height="60" viewBox="0 0 71 60" fill="none" xmlns="http://www.w3.org/2000/svg">
<path d="M6.24393 27.8635L14.8501 15.0771L23.4564 27.8635H6.24393Z" stroke="black"/>
<path d="M25.3338 27.8635L33.94 15.0771L42.5462 27.8635H25.3338Z" stroke="black"/>
<path d="M25.0612 27.7727L33.94 58.2143L42.8188 27.7727H25.0612Z" stroke="black"/>
<path d="M44.4236 27.8635L53.0298 15.0771L61.636 27.8635H44.4236Z" stroke="black"/>
<line x1="14.8477" y1="14.7725" x2="53.0295" y2="14.7725" stroke="black"/>
<line x1="6.36328" y1="27.8633" x2="53.0299" y2="27.8633" stroke="black"/>
<line y1="-0.5" x2="42.672" y2="-0.5" transform="matrix(0.671081 0.741384 -0.72224 0.691643 5.30469 28.3633)" stroke="black"/>
<line y1="-0.5" x2="42.672" y2="-0.5" transform="matrix(-0.671081 0.741384 0.72224 0.691643 62.5742 28.3633)" stroke="black"/>
<line y1="-0.5" x2="7.80007" y2="-0.5" transform="matrix(0.543895 0.839153 -0.824729 0.565528 10.6055 1.09082)" stroke="#F22EA9"/>
<line y1="-0.5" x2="8.3814" y2="-0.5" transform="matrix(0.759257 0.650791 -0.629509 0.776993 0 15.2725)" stroke="#F22EA9"/>
<line x1="35.5" x2="35.5" y2="6.54545" stroke="#F22EA9"/>
<line y1="-0.5" x2="6.91015" y2="-0.5" transform="matrix(-0.613941 0.789352 -0.772185 -0.635398 59.3945 2.18164)" stroke="#F22EA9"/>
<line y1="-0.5" x2="7.71603" y2="-0.5" transform="matrix(-0.824729 0.565528 -0.543895 -0.839153 70 16.3633)" stroke="#F22EA9"/>
</svg>
