<svg width="70" height="67" viewBox="0 0 70 67" fill="none" xmlns="http://www.w3.org/2000/svg">
<path d="M32.8462 6.65661C33.6139 5.76036 34.1478 4.68863 34.4986 3.48005C34.8354 4.72583 35.3684 5.81768 36.1492 6.7133C37.1456 7.85625 38.509 8.63861 40.2839 9.0313C39.6911 9.20634 39.1607 9.38109 38.6861 9.56531C37.5992 9.98715 36.7682 10.4718 36.1306 11.1572C35.4914 11.8441 35.0823 12.6941 34.772 13.7841C34.6799 14.1078 34.5956 14.4558 34.5164 14.8303C34.1898 13.532 33.6874 12.3525 32.9133 11.3712C32.0365 10.2598 30.8388 9.43581 29.232 8.96584C30.7576 8.48248 31.9487 7.70447 32.8462 6.65661Z" stroke="#F22EA9"/>
<path d="M6.83686 36.3155C7.60957 35.4635 8.14638 34.4439 8.49867 33.2944C8.83686 34.4791 9.37281 35.5178 10.1587 36.3692C11.1349 37.4267 12.4598 38.1557 14.1753 38.5334C13.6295 38.6877 13.1378 38.8423 12.6949 39.0047C11.6104 39.4022 10.7795 39.8594 10.1404 40.5081C9.49807 41.1602 9.08619 41.9682 8.77421 43.0033C8.68124 43.3117 8.59634 43.6432 8.51655 43.9999C8.18875 42.7662 7.68375 41.6444 6.90445 40.7114C6.04371 39.681 4.87734 38.9139 3.32269 38.4666C4.79873 38.009 5.95735 37.2852 6.83686 36.3155Z" stroke="#F22EA9"/>
<path d="M59.8462 48.6566C60.6139 47.7604 61.1478 46.6886 61.4986 45.4801C61.8354 46.7258 62.3684 47.8177 63.1492 48.7133C64.1456 49.8562 65.509 50.6386 67.2839 51.0313C66.6911 51.2063 66.1607 51.3811 65.6861 51.5653C64.5992 51.9871 63.7682 52.4718 63.1306 53.1572C62.4914 53.8441 62.0823 54.6941 61.772 55.7841C61.6799 56.1078 61.5956 56.4558 61.5164 56.8303C61.1898 55.532 60.6874 54.3525 59.9133 53.3712C59.0365 52.2598 57.8388 51.4358 56.232 50.9658C57.7576 50.4825 58.9487 49.7045 59.8462 48.6566Z" stroke="#F22EA9"/>
<line x1="24.0781" y1="20.3566" x2="31.2968" y2="31.7003" stroke="black"/>
<line x1="34.5" y1="21" x2="34.5" y2="28" stroke="black"/>
<line x1="44.6909" y1="21.943" x2="37.4721" y2="32.2555" stroke="black"/>
<line x1="45.9277" y1="16.2226" x2="47.9902" y2="13.1289" stroke="black"/>
<line x1="42.9299" y1="31.5846" x2="49.1174" y2="26.4284" stroke="black"/>
<line x1="41" y1="36.5" x2="48" y2="36.5" stroke="black"/>
<line x1="54" y1="36.5" x2="63" y2="36.5" stroke="black"/>
<line x1="45.6125" y1="42.9125" x2="49.7375" y2="46.0062" stroke="black"/>
<line x1="39.5361" y1="45.0904" x2="48.8173" y2="58.4966" stroke="black"/>
<line x1="35.5" y1="47" x2="35.5" y2="53" stroke="black"/>
<line x1="35.5" y1="59" x2="35.5" y2="62" stroke="black"/>
<line x1="32.3159" y1="45.6617" x2="25.0971" y2="55.9742" stroke="black"/>
<line x1="24.9781" y1="44.7506" x2="17.7594" y2="49.9069" stroke="black"/>
<line x1="28" y1="38.5" x2="22" y2="38.5" stroke="black"/>
<line x1="24.4101" y1="33.416" x2="15.1289" y2="27.2285" stroke="black"/>
<line x1="17.7461" y1="61.459" x2="23.9336" y2="65.584" stroke="black"/>
<line x1="23.0154" y1="61.1561" x2="18.8904" y2="66.3123" stroke="black"/>
<line x1="55.9024" y1="19.1777" x2="62.0899" y2="23.3027" stroke="black"/>
<line x1="61.1717" y1="18.8748" x2="57.0467" y2="24.0311" stroke="black"/>
</svg>
