<svg width="50" height="69" viewBox="0 0 50 69" fill="none" xmlns="http://www.w3.org/2000/svg">
<path d="M23.3153 4.90854C23.84 4.33002 24.2242 3.6543 24.4954 2.90231C24.7597 3.67889 25.1457 4.36935 25.682 4.95034C26.3646 5.68984 27.2614 6.22076 28.3901 6.53489C28.1325 6.61351 27.8919 6.69316 27.6674 6.77547C26.8296 7.08256 26.1763 7.43972 25.6706 7.95305C25.1617 8.46968 24.839 9.10688 24.597 9.90975C24.5641 10.0192 24.5324 10.1324 24.5018 10.2493C24.2491 9.45944 23.8877 8.73524 23.3702 8.11566C22.7607 7.38603 21.9583 6.82833 20.9206 6.47099C21.9046 6.11405 22.6969 5.59042 23.3153 4.90854Z" stroke="#F22EA9"/>
<line x1="9.4932" y1="44.0822" x2="5.4932" y2="68.0822" stroke="black"/>
<line x1="0.0894427" y1="66.5081" x2="11.0894" y2="68.5081" stroke="black"/>
<path d="M3.14531 33.7315L8.37217 13.071L21.9504 15.4124L19.5073 36.7251C18.9562 41.5327 14.4408 44.8622 9.68523 43.9676C4.96188 43.0791 1.96655 38.3909 3.14531 33.7315Z" stroke="black"/>
<path d="M6.7205 20.4287L10.3446 21.5223C11.2695 21.8014 12.2482 21.8531 13.1974 21.6728L14.6306 21.4006C16.0775 21.1259 17.5748 21.3929 18.8376 22.1507L21.1038 23.5108" stroke="black"/>
<line y1="-0.5" x2="24.3311" y2="-0.5" transform="matrix(0.164399 0.986394 0.986394 -0.164399 40.7148 44)" stroke="black"/>
<line y1="-0.5" x2="11.1803" y2="-0.5" transform="matrix(-0.98387 0.178885 0.178885 0.98387 49.7148 67)" stroke="black"/>
<path d="M46.5695 33.7315L41.3427 13.071L27.7644 15.4124L30.2075 36.7251C30.7586 41.5327 35.274 44.8622 40.0296 43.9676C44.753 43.0791 47.7483 38.3909 46.5695 33.7315Z" stroke="black"/>
<path d="M42.9904 20.4287L39.3664 21.5223C38.4414 21.8014 37.4627 21.8531 36.5136 21.6728L35.0803 21.4006C33.6335 21.1259 32.1361 21.3929 30.8734 22.1507L28.6071 23.5108" stroke="black"/>
</svg>
