<svg width="66" height="70" viewBox="0 0 66 70" fill="none" xmlns="http://www.w3.org/2000/svg">
<path d="M42.705 25.5934C53.0729 31.9017 60.489 46.3751 64.632 68.862C63.5819 69.3037 62.2888 69.5191 61.002 69.4893C59.587 69.4565 58.2352 69.1286 57.2619 68.5367C57.2539 68.5305 57.2455 68.5245 57.2367 68.5187C57.2241 68.5103 57.2114 68.5026 57.1985 68.4956C55.6786 67.5795 53.7306 67.1361 51.8148 67.1361C49.9421 67.1361 48.0496 67.5598 46.5697 68.4343H46.5682L46.4488 68.5066C45.378 69.155 43.8753 69.498 42.3456 69.4991C40.8321 69.5001 39.363 69.1665 38.3263 68.5365C38.3183 68.5305 38.31 68.5245 38.3013 68.5188C38.2887 68.5103 38.2759 68.5026 38.263 68.4956C36.7432 67.5795 34.7953 67.1354 32.8799 67.135C30.966 67.1346 29.0316 67.5773 27.539 68.4933C27.5267 68.4999 27.5152 68.5068 27.5047 68.5136C26.4348 69.1589 24.9382 69.4995 23.4144 69.5002C21.9014 69.5009 20.4321 69.1666 19.3936 68.5364C19.3857 68.5304 19.3774 68.5245 19.3689 68.5188C19.3561 68.5103 19.3432 68.5025 19.3302 68.4954C17.8104 67.5809 15.8618 67.1376 13.9457 67.1376C12.075 67.1376 10.1844 67.5603 8.70635 68.4343H8.70309L8.58363 68.5067C7.57695 69.1168 6.19423 69.4533 4.76324 69.4886C3.47818 69.5202 2.19913 69.3078 1.17094 68.8723C5.31127 46.3733 12.7287 31.8959 23.0985 25.5883C25.9522 26.7715 29.4839 27.3604 32.9769 27.3604C36.4649 27.3604 39.9445 26.7733 42.705 25.5934ZM46.3599 68.578C46.358 68.5799 46.3587 68.5792 46.3611 68.5769L46.3599 68.578ZM46.7035 68.4343C46.7096 68.4342 46.7119 68.4343 46.7078 68.4343H46.7035ZM27.7745 68.4328C27.7766 68.4328 27.7783 68.4328 27.7783 68.4328H27.7783L27.7782 68.4328H27.778H27.7772L27.7745 68.4328Z" stroke="black"/>
<path d="M39.105 0.502854L39.104 0.502889C37.1872 0.560639 34.7933 1.59497 34.1141 4.24849C34.0966 4.32002 34.0685 4.37474 34.053 4.40224C34.0261 4.47089 33.9906 4.54361 33.9442 4.61388C33.8987 4.68412 33.8536 4.73824 33.809 4.78684C33.7579 4.84261 33.695 4.90171 33.6192 4.95415L33.612 4.95916L33.612 4.95909C33.5543 4.99755 33.4975 5.03056 33.4329 5.06206L33.4265 5.06603C33.4079 5.07739 33.3599 5.10667 33.2949 5.12936C33.2262 5.15373 33.1665 5.16007 33.1446 5.16213C33.1213 5.16678 33.0856 5.17363 33.0442 5.17873C33.0239 5.18346 32.9683 5.19596 32.8994 5.19596C32.8345 5.19596 32.7792 5.1874 32.7431 5.18079C32.7323 5.1788 32.722 5.17675 32.713 5.1749C32.678 5.17369 32.6286 5.16884 32.5739 5.1532L32.5292 5.14044L32.5099 5.13079C32.3882 5.09239 32.2655 5.03329 32.1528 4.94633C32.1047 4.91091 32.0725 4.87588 32.0586 4.86051L32.0555 4.85706C31.9944 4.80145 31.9139 4.72009 31.8473 4.60915M39.105 0.502854L32.2761 4.35194M39.105 0.502854C41.018 0.441089 43.4896 1.35861 44.4875 4.0323L39.105 0.502854ZM31.8473 4.60915L32.2761 4.35194M31.8473 4.60915C31.8473 4.60917 31.8473 4.60918 31.8474 4.6092L32.2761 4.35194M31.8473 4.60915C31.8212 4.56559 31.8003 4.52447 31.7826 4.48668M32.2761 4.35194C32.2585 4.32254 32.2437 4.29313 32.229 4.26079M31.7826 4.48668L31.786 4.4923C31.7876 4.49505 31.7853 4.49137 31.7818 4.48439L32.229 4.26079M31.7826 4.48668C31.7796 4.48026 31.7767 4.47393 31.7739 4.46771L32.229 4.26079M31.7826 4.48668L32.229 4.26079M21.2995 3.99977C21.2916 3.95978 21.2837 3.91973 21.2759 3.87961L20.7852 3.97551L21.266 4.11248C21.2768 4.07457 21.288 4.037 21.2995 3.99977ZM24.2489 23.3498C24.1459 23.3089 24.0441 23.2671 23.9435 23.2246L23.7487 23.6851L24.2487 23.6866C24.249 23.5736 24.2491 23.4614 24.2489 23.3498ZM32.0442 4.84428C32.0438 4.84383 32.0438 4.84376 32.0441 4.84415L32.0442 4.84428ZM42.0469 23.691L41.8459 23.2332C41.7475 23.2764 41.6477 23.3187 41.5467 23.3602C41.5465 23.4703 41.5466 23.5811 41.5469 23.6925L42.0469 23.691ZM43.5925 8.00766C43.5925 8.00769 43.5925 8.00772 43.5925 8.00775L44.0787 8.12444L43.5925 8.00766Z" stroke="black"/>
<path d="M16.4766 43.1582L16.1093 43.774C13.0738 48.8641 11.1779 54.5518 10.5523 60.4452L10.4766 61.1582" stroke="#F22EA9"/>
<path d="M19.6133 47.8311V47.8311C17.5505 51.1601 16.2953 54.9256 15.9481 58.8265V58.8265" stroke="#F22EA9"/>
</svg>
