<svg width="73" height="64" viewBox="0 0 73 64" fill="none" xmlns="http://www.w3.org/2000/svg">
<circle cx="49.867" cy="40.827" r="18.3943" stroke="black"/>
<circle cx="49.8646" cy="40.8275" r="22.1732" stroke="black"/>
<circle cx="22.154" cy="40.8268" r="20.904" fill="white" stroke="white" stroke-width="1.5"/>
<circle cx="22.156" cy="40.827" r="18.3943" fill="white" stroke="black"/>
<circle cx="22.1545" cy="40.8274" r="14.6155" fill="white" stroke="black"/>
<path d="M36.2728 9.01417L30.0025 15.2924L22.7988 8.07945C21.0671 6.34553 21.0671 3.5341 22.7988 1.80018C24.5301 0.0666081 27.3369 0.066608 29.0683 1.80018L29.6462 2.37888L30 2.73311L30.3538 2.37888L30.9317 1.80018C32.6631 0.0666081 35.4699 0.0666081 37.2012 1.80018C38.9329 3.5341 38.9329 6.34553 37.2012 8.07945L36.6232 8.65821L36.2702 9.01163L36.2728 9.01417Z" stroke="#F22EA9"/>
</svg>
