<svg width="100" height="100" viewBox="0 0 100 100" fill="none" xmlns="http://www.w3.org/2000/svg">
<path d="M38.8144 97.9819C38.8137 97.9819 38.8127 97.9819 38.8116 97.9819L38.8142 97.9819H38.8144ZM38.8144 97.9819H38.815M38.8144 97.9819H38.815M38.8152 97.9819H38.8153H38.8152ZM38.8152 97.9819H38.815M38.8152 97.9819H38.815M60.1573 36.3238C75.1277 45.3716 85.7808 66.2067 91.7087 98.5098C90.1471 99.2012 88.2027 99.5358 86.276 99.4911C84.2242 99.4436 82.2485 98.9676 80.8159 98.0927C80.8054 98.0844 80.7943 98.0763 80.7825 98.0685C80.7688 98.0593 80.7548 98.051 80.7408 98.0435C78.6093 96.7573 75.8648 96.1293 73.1556 96.1293C70.4874 96.1293 67.8019 96.7385 65.7209 97.984H65.7197L65.6003 98.0563C64.0279 99.0085 61.8395 99.5036 59.6273 99.5052C57.434 99.5067 55.2884 99.023 53.7632 98.0926C53.7528 98.0844 53.7418 98.0763 53.7302 98.0686C53.7164 98.0594 53.7024 98.051 53.6883 98.0435C51.5569 96.7574 48.8125 96.1283 46.1037 96.1277C43.3965 96.1272 40.6718 96.7546 38.5802 98.0399C38.5649 98.048 38.551 98.0563 38.5384 98.0646C36.9671 99.0134 34.7861 99.5057 32.5808 99.5068C30.3882 99.5078 28.2424 99.0231 26.7148 98.0924C26.7044 98.0842 26.6935 98.0762 26.6819 98.0685C26.668 98.0593 26.6539 98.0509 26.6397 98.0433C24.5084 96.7594 21.7629 96.1314 19.0532 96.1314C16.3877 96.1314 13.7051 96.7392 11.6268 97.984H11.6231L11.5036 98.0564C10.0248 98.9526 8.00998 99.4391 5.93977 99.4901C4.01486 99.5376 2.09027 99.2072 0.56074 98.524C6.4846 66.2047 17.1392 45.3644 32.1115 36.3172C36.1738 38.0223 41.232 38.8744 46.2425 38.8744C51.2478 38.8744 56.2311 38.0242 60.1573 36.3238ZM65.5144 98.126C65.5123 98.1281 65.5129 98.1274 65.5152 98.1252L65.5144 98.126ZM65.8552 97.984C65.8614 97.9839 65.8636 97.984 65.8593 97.984H65.8552Z" stroke="black"/>
<path d="M54.9854 0.504189L54.9844 0.504224C52.1892 0.588439 48.6561 2.10032 47.654 6.01757C47.6327 6.10569 47.596 6.17062 47.5807 6.1968C47.5461 6.28773 47.5 6.3834 47.4398 6.47441C47.383 6.56229 47.3265 6.6303 47.2681 6.69397C47.2031 6.76487 47.1251 6.83783 47.033 6.90162L47.0257 6.90662L47.0257 6.90656C46.9481 6.95829 46.8726 7.00194 46.7852 7.04399L46.7835 7.04504L46.7676 7.05493C46.7443 7.06921 46.6912 7.10133 46.6205 7.12594C46.543 7.15353 46.4756 7.15982 46.4521 7.16201L46.4505 7.16215L46.4462 7.16253C46.4461 7.16254 46.446 7.16256 46.4459 7.16258C46.4112 7.16954 46.3577 7.18025 46.296 7.18729L46.2886 7.18906L46.2881 7.18918C46.2652 7.1945 46.2033 7.20897 46.1266 7.20897C46.0353 7.20897 45.9377 7.19098 45.8825 7.17931C45.8446 7.17893 45.7861 7.17489 45.7204 7.15613L45.6757 7.14336L45.6503 7.13064C45.4911 7.08226 45.3328 7.00687 45.189 6.89556C45.1367 6.85731 45.101 6.81875 45.0843 6.80026L45.0733 6.78795C44.992 6.71468 44.8901 6.61266 44.8073 6.47473L54.9854 0.504189ZM54.9854 0.504189C57.7959 0.413446 61.452 1.76958 62.9041 5.74329C62.5179 7.69044 62.08 9.53989 61.6119 11.4903C60.1801 17.451 58.6987 23.6554 58.6949 33.5172C55.2455 34.9632 50.765 35.6947 46.2268 35.6927C41.6872 35.6907 37.1367 34.9547 33.5537 33.5041C33.5494 23.6536 32.0688 17.4537 30.6372 11.4985L30.6371 11.4984C30.1635 9.52993 29.7205 7.66784 29.3335 5.70314C30.4406 2.02847 33.8531 0.587795 36.5676 0.508426L36.5689 0.508383C39.4453 0.416672 43.2634 1.84998 44.6253 6.11338L44.6284 6.1228L44.6317 6.13209C44.6564 6.19993 44.6872 6.25312 44.703 6.27981L44.7139 6.29814L44.7207 6.30948C44.7207 6.30955 44.7207 6.30962 44.7208 6.30969L54.9854 0.504189Z" stroke="black"/>
<path d="M22.6696 61.6582L20.1699 65.8499C17.1344 70.94 15.2385 76.6277 14.6128 82.521L14.0976 87.3742" stroke="#F22EA9"/>
<path d="M27.1433 68.335V68.335C24.1963 73.091 22.403 78.4707 21.9071 84.0437V84.0437" stroke="#F22EA9"/>
<circle cx="72.8597" cy="40.0016" r="26.6447" fill="white" stroke="black"/>
<line x1="61.6475" y1="50.5048" x2="84.1388" y2="28.0136" stroke="#F22EA9"/>
<line y1="-0.5" x2="31.8075" y2="-0.5" transform="matrix(-0.707107 -0.707107 -0.707107 0.707107 83.7224 50.8584)" stroke="#F22EA9"/>
</svg>
