<svg width="265" height="436" viewBox="0 0 265 436" fill="none" xmlns="http://www.w3.org/2000/svg">
<path opacity="0.2" d="M163.891 207.455C167.408 207.406 170.899 206.955 174.387 206.504C177.49 206.103 180.589 205.703 183.703 205.586L163.891 207.455ZM163.891 207.455C141.238 207.705 121.457 180.999 138.649 161.928L163.891 207.455ZM105.946 167.94L105.123 168.789C98.2057 175.914 92.7332 184.074 89.8289 193.609L89.8286 193.61C87.8192 200.156 87.1506 206.954 86.8743 213.86C86.7622 216.663 86.7148 219.499 86.6672 222.342C86.5982 226.467 86.529 230.609 86.2614 234.692C86.2614 234.692 86.2614 234.693 86.2614 234.693L85.7624 234.66M105.946 167.94L62.5799 299.072C75.934 280.219 84.2647 257.751 85.7624 234.66M105.946 167.94H105.929M105.946 167.94H105.929M85.7624 234.66C86.0298 230.581 86.0983 226.469 86.1667 222.359C86.3299 212.56 86.493 202.772 89.3506 193.464C92.2155 184.058 97.5515 175.99 104.283 168.94L85.7624 234.66ZM105.929 167.94C115.552 158.33 127.803 150.671 139.884 144.169C142.475 142.777 145.096 141.397 147.728 140.012C166.72 130.017 186.258 119.735 198.773 102.389L198.775 102.387C201.594 98.445 204.172 93.8487 204.172 88.8539C204.188 83.4401 201.352 79.0045 197.314 75.522C193.279 72.0421 188.004 69.476 183.022 67.781C166.891 62.275 149.771 60.2149 132.814 59.1545C106.521 57.5015 79.4155 58.2131 54.6357 67.4742C12.7462 83.1201 -16.9081 121.022 -36.9931 160.798C-68.2336 222.639 -81.4713 291.826 -91.3631 360.328L-91.4523 360.945L-90.8304 360.898C-58.4036 358.433 -26.2583 352.068 4.66864 342.021L4.51416 341.546L105.929 167.94ZM182.16 136.372L182.164 136.394C166.803 141.997 149.589 149.071 138.278 161.592L138.277 161.593C129.506 171.323 130.18 183.018 135.904 192.201C141.614 201.362 152.377 208.082 163.896 207.955L163.898 207.955C167.253 207.908 170.579 207.499 173.872 207.075L174.445 207.001C177.553 206.599 180.632 206.202 183.722 206.085L183.724 206.085C195.934 205.59 210.229 209.344 218.234 218.932C220.683 221.874 221.935 224.832 222.299 227.728C222.662 230.627 222.139 233.496 220.988 236.259C218.68 241.801 213.865 246.878 208.765 250.811C185.876 268.405 157.026 272.483 130.685 260.227C117.975 254.282 107.104 244.812 100.233 233.19L99.4999 231.949L99.3075 233.378L80.3954 373.797H-92.5844H-93.0259L-93.0805 374.236C-97.7076 411.395 -100.341 445.299 -102.362 471.325C-102.672 475.319 -102.968 479.127 -103.254 482.733C-112.118 594.102 -118.735 645.026 -170.631 691.178C-220.657 732.035 -271.409 729.196 -305.929 703.99C-340.476 678.764 -358.844 631.086 -343.967 582.088C-336.637 561.803 -323.876 546.13 -310.151 535.978C-296.407 525.812 -281.759 521.223 -270.663 522.99C-265.127 523.872 -260.486 526.331 -257.251 530.458C-254.013 534.589 -252.144 540.44 -252.251 548.172C-252.466 563.658 -260.608 586.565 -281.27 617.834L-281.286 617.858L-281.299 617.884C-287.561 630.289 -291.041 641.722 -292.168 651.464C-293.294 661.198 -292.074 669.284 -288.882 674.957C-285.676 680.655 -280.492 683.89 -273.819 683.882C-267.181 683.875 -259.132 680.661 -250.124 673.63C-214.117 645.555 -199.428 599.577 -189.473 548.745L-189.964 548.649L-189.473 548.745C-187.421 538.228 -185.582 517.996 -183.181 491.575C-182.928 488.791 -182.669 485.938 -182.403 483.021C-179.606 452.397 -176.019 414.614 -170.591 374.364L-170.515 373.797H-171.087H-386.5V367.474H-386.282C-368.626 367.474 -354.335 362.805 -343.491 353.455C-332.622 344.082 -327.217 330.529 -327.217 312.877V-108.186C-327.217 -125.84 -332.622 -140.123 -343.464 -150.951L-343.465 -150.952C-354.337 -161.779 -368.606 -167.177 -386.282 -167.177H-386.5V-173.5H-154.021V-167.177H-156.453C-174.13 -167.177 -188.43 -161.779 -199.272 -150.951L-199.272 -150.951C-210.114 -140.091 -215.518 -125.84 -215.518 -108.186V315.806C-215.518 331.463 -211.724 343.689 -204.035 352.317C-197.167 360.065 -185.712 364.261 -169.803 365.105L-169.345 365.129L-169.281 364.676C-162.653 317.789 -153.468 268.112 -140.096 222.855C-126.723 177.593 -109.173 136.789 -85.8326 107.617C-32.6773 44.5399 42.6256 28.5102 108.547 30.0858C174.476 31.6616 230.929 50.8474 246.236 58.08L246.449 57.6279L246.236 58.0801C253.882 61.6893 259.61 66.2169 262.467 71.4668C265.303 76.6791 265.347 82.6721 261.484 89.354C257.605 96.0646 249.786 103.462 236.903 111.37C224.028 119.273 206.135 127.661 182.16 136.372Z" stroke="white"/>
</svg>
