<svg width="1400" height="277" viewBox="0 0 1400 277" fill="none" xmlns="http://www.w3.org/2000/svg">
<path d="M0 224.632V222.312C5.54858 222.312 10.0379 220.672 13.4931 217.343C16.9484 214.039 18.6886 209.524 18.6886 203.849V72.2924C18.6886 66.7436 16.9484 62.3045 13.4931 58.8996C10.0379 55.5199 5.52336 53.83 0 53.83V51.5096H23.531C31.3747 51.5096 37.3773 50.6773 41.5387 48.9622C45.3723 47.2724 48.0709 45.2042 49.6094 42.7324H51.9297V203.824C51.9297 209.524 53.6699 214.014 57.1252 217.318C60.5804 220.622 65.095 222.286 70.6183 222.286V224.607H0V224.632Z" fill="white"/>
<path d="M139.369 227.86C126.758 227.86 115.712 225.312 106.254 220.243C96.7961 215.173 89.4316 208.01 84.2109 198.779C78.9902 189.548 76.3672 178.627 76.3672 166.016C76.3672 153.405 78.9902 142.484 84.2109 133.253C89.4316 124.021 96.7961 116.858 106.254 111.789C115.712 106.719 126.758 104.172 139.369 104.172C151.979 104.172 162.976 106.719 172.383 111.789C181.765 116.858 189.079 124.021 194.3 133.253C199.52 142.484 202.143 153.405 202.143 166.016C202.143 178.627 199.52 189.548 194.3 198.779C189.079 208.01 181.765 215.173 172.383 220.243C163.001 225.312 152.004 227.86 139.369 227.86ZM139.142 224.858C144.514 224.858 149.129 222.16 152.988 216.787C156.822 211.415 159.823 204.202 161.992 195.197C164.136 186.193 165.22 176.382 165.22 165.764C165.22 154.212 164.11 144.022 161.866 135.195C159.646 126.342 156.569 119.431 152.635 114.412C148.701 109.418 144.287 106.921 139.369 106.921C134.148 106.921 129.558 109.62 125.649 114.992C121.714 120.39 118.688 127.527 116.544 136.456C114.4 145.384 113.316 155.145 113.316 165.764C113.316 177.466 114.476 187.757 116.771 196.685C119.091 205.614 122.193 212.525 126.128 217.468C130.062 222.387 134.4 224.858 139.167 224.858H139.142Z" fill="white"/>
<path d="M456.839 186.8C452.677 192.954 447.255 197.847 440.571 201.454C433.888 205.061 426.851 206.877 419.462 206.877C407.305 206.877 397.62 201.984 390.382 192.223C383.144 182.462 379.537 169.422 379.537 153.104V151.944H457.091L456.864 148.488C456.259 139.711 453.737 131.993 449.373 125.284C444.985 118.601 439.134 113.405 431.845 109.697C424.531 106.015 416.183 104.148 406.801 104.148C395.577 104.148 385.54 106.721 376.687 111.892C367.835 117.037 360.874 124.25 355.804 133.481C350.735 142.713 348.188 153.482 348.188 165.791C348.188 178.099 350.508 188.44 355.123 197.747C359.739 207.053 366.17 214.317 374.392 219.563C382.614 224.784 392.047 227.407 402.665 227.407C411.441 227.407 419.588 225.718 427.129 222.338C434.67 218.958 441.202 214.267 446.751 208.264C452.299 202.261 456.36 195.351 458.983 187.481L456.915 186.8H456.839ZM404.228 107.629C411.315 107.629 416.813 111.412 420.723 118.928C424.405 126.016 426.347 135.171 426.574 146.345H379.89C380.672 134.869 383.169 125.663 387.381 118.701C391.845 111.311 397.469 107.629 404.228 107.629Z" fill="white"/>
<path d="M188.529 71.4849C202.199 85.2813 200.433 91.6624 196.373 97.2868C194.355 100.061 177.911 110.226 166.587 78.9758C163.333 71.0814 157.709 30.2221 181.492 18.7209C208.378 6.38745 221.114 31.9119 224.771 40.0333C229.488 50.5256 274.154 199.965 277.609 207.481C281.089 214.997 286.966 215.073 290.144 211.97C293.321 208.868 331.153 131.488 334.734 121.954C338.315 112.42 366.865 36.0483 273.826 8.90963C287.218 -5.51724 324.671 -0.119777 343.233 8.90963C361.796 17.939 390.825 14.0044 390.825 14.0044C390.825 14.0044 368.933 30.9535 343.889 18.393C323.259 8.05209 311.455 8.68263 311.455 8.68263C368.202 28.5322 372.969 59.4794 342.073 124.501C318.315 174.516 303.031 203.168 295.213 215.653C287.395 228.138 270.068 250.812 253.952 226.221C237.836 201.655 194.557 36.6788 187.091 28.734C181.517 22.8069 175.086 32.4668 174.834 40.3612C174.582 48.2557 174.834 57.6886 188.478 71.4849H188.529Z" fill="white"/>
<path d="M693.626 227.912C680.94 227.912 669.843 225.364 660.335 220.244C650.827 215.15 643.437 207.936 638.191 198.68C632.92 189.398 630.297 178.427 630.297 165.74C630.297 153.054 632.92 142.082 638.191 132.8C643.437 123.519 650.827 116.331 660.335 111.236C669.843 106.141 680.94 103.568 693.626 103.568C706.312 103.568 717.359 106.116 726.792 111.236C736.224 116.331 743.564 123.519 748.835 132.8C754.081 142.082 756.729 153.054 756.729 165.74C756.729 178.427 754.106 189.398 748.835 198.68C743.564 207.961 736.224 215.15 726.792 220.244C717.359 225.339 706.287 227.912 693.626 227.912ZM693.399 224.885C698.822 224.885 703.463 222.187 707.321 216.764C711.18 211.341 714.207 204.128 716.376 195.073C718.545 186.018 719.629 176.157 719.629 165.488C719.629 153.886 718.494 143.646 716.275 134.743C714.03 125.839 710.928 118.903 706.993 113.859C703.059 108.84 698.595 106.318 693.652 106.318C688.38 106.318 683.79 109.016 679.856 114.439C675.921 119.862 672.844 127.05 670.701 136.004C668.532 144.983 667.447 154.794 667.447 165.463C667.447 177.216 668.607 187.582 670.928 196.561C673.248 205.54 676.375 212.501 680.335 217.445C684.269 222.388 688.658 224.86 693.45 224.86L693.399 224.885Z" fill="white"/>
<path d="M1280.56 186.624C1276.37 192.803 1270.93 197.721 1264.22 201.353C1257.48 204.985 1250.42 206.801 1242.98 206.801C1230.77 206.801 1221.01 201.883 1213.75 192.072C1206.49 182.26 1202.85 169.145 1202.85 152.751V151.591H1280.81L1280.58 148.11C1279.95 139.282 1277.46 131.514 1273.04 124.805C1268.63 118.071 1262.75 112.85 1255.41 109.142C1248.08 105.435 1239.68 103.568 1230.24 103.568C1218.95 103.568 1208.86 106.166 1199.98 111.337C1191.08 116.532 1184.09 123.746 1179 133.027C1173.9 142.309 1171.33 153.129 1171.33 165.513C1171.33 177.897 1173.65 188.288 1178.29 197.646C1182.93 207.003 1189.39 214.317 1197.66 219.563C1205.93 224.81 1215.41 227.458 1226.08 227.458C1234.91 227.458 1243.08 225.743 1250.67 222.363C1258.24 218.958 1264.82 214.242 1270.4 208.214C1275.97 202.186 1280.06 195.224 1282.7 187.33L1280.61 186.624H1280.56ZM1227.67 107.049C1234.78 107.049 1240.31 110.832 1244.27 118.424C1247.9 125.41 1249.84 134.389 1250.12 145.336H1203.28C1204.12 134.112 1206.59 125.057 1210.75 118.197C1215.24 110.782 1220.89 107.049 1227.67 107.049Z" fill="white"/>
<path d="M595.143 58.0914C597.615 50.5249 601.322 46.7164 606.291 46.7164C611.259 46.7164 615.017 50.1214 618.12 56.9312C619.658 60.3362 620.793 64.2708 621.474 68.7603C622.18 73.2498 622.584 78.2689 622.76 83.8429L650.604 68.0793C648.738 63.2871 645.61 59.0751 641.197 55.4432C636.783 51.8112 631.537 48.9359 625.408 46.8677C619.305 44.7743 612.848 43.7402 606.039 43.7402C596.127 43.7402 587.552 46.1363 580.288 50.9284C573.025 55.7206 567.426 62.4044 563.466 71.005C559.532 79.5804 557.539 89.77 557.539 101.523V106.87H540.137L536.656 113.125H557.539V203.848C557.539 209.422 555.799 213.912 552.318 217.317C548.838 220.722 544.323 222.412 538.75 222.412V224.732H614.387V222.412H614.16C607.199 222.412 601.6 220.722 597.338 217.317C593.075 213.912 590.957 209.422 590.957 203.848V113.125H618.8L622.281 106.87H590.957V89.2404C590.957 76.0998 592.344 65.7337 595.143 58.1419V58.0914Z" fill="white"/>
<path d="M1295.13 224.656V222.336H1295.36C1300.94 222.336 1305.42 220.646 1308.83 217.241C1312.23 213.836 1313.92 209.346 1313.92 203.772V127.678C1313.92 121.801 1312.71 117.236 1310.32 113.983C1307.92 110.729 1302.85 109.115 1295.13 109.115V106.794H1318.11C1326.31 106.794 1332.49 105.987 1336.67 104.348C1340.86 102.734 1343.79 100.59 1345.5 97.9668H1346.66L1346.89 134.589C1348.91 129.948 1351.48 125.08 1354.66 119.985C1357.83 114.891 1360.99 110.426 1365.85 106.946C1370.72 103.465 1374.71 102.557 1381.52 102.784C1391.23 103.112 1397.08 105.332 1400 106.567L1390.95 133.706C1385.37 130.604 1380.56 128.46 1376.45 127.199C1372.34 125.963 1368.75 125.332 1365.65 125.332C1360.38 125.332 1356.5 128.637 1353.92 131.865C1351.38 135.119 1349.16 138.977 1347.32 143.467V203.747C1347.32 209.321 1349.01 213.811 1352.41 217.216C1355.82 220.62 1360.31 222.31 1365.88 222.31H1366.11V224.631H1295.11L1295.13 224.656Z" fill="white"/>
<path d="M766.791 224.658V222.338H767.018C772.592 222.338 777.081 220.648 780.486 217.243C783.891 213.838 785.58 209.348 785.58 203.774V127.68C785.58 121.803 784.37 117.238 781.974 113.985C779.578 110.731 774.508 109.117 766.791 109.117V106.796H789.767C797.964 106.796 804.143 105.989 808.33 104.35C812.516 102.736 815.442 100.592 817.157 97.9688H818.317L818.544 134.591C820.562 129.95 823.134 125.082 826.312 119.987C829.49 114.893 832.642 110.428 837.51 106.948C842.378 103.467 846.363 102.559 853.172 102.786C862.882 103.114 868.733 105.334 871.659 106.569L862.605 133.708C857.031 130.606 852.214 128.462 848.103 127.201C843.992 125.965 840.41 125.334 837.308 125.334C832.037 125.334 828.153 128.638 825.581 131.867C823.008 135.095 820.814 138.979 818.973 143.469V203.749C818.973 209.323 820.663 213.813 824.067 217.217C827.472 220.622 831.962 222.312 837.535 222.312H837.762V224.633H766.766L766.791 224.658Z" fill="white"/>
<path d="M1104.29 228.366L1058.14 121.653C1056.6 118.096 1054.53 115.145 1051.98 112.825C1049.43 110.504 1045.9 109.269 1041.41 109.117V106.797H1106.38V109.117C1100.96 109.748 1097.45 112.144 1095.82 116.306C1094.2 120.492 1094.68 125.738 1097.33 132.094L1119.88 184.858L1143.15 131.439C1144.69 127.882 1146.51 124.276 1146.51 120.871C1146.51 117.012 1145.35 115.221 1143.03 112.749C1140.71 110.277 1138.16 109.596 1134 109.143V106.822H1170.65V109.143C1166.61 110.076 1162.75 112.396 1159.04 116.104C1155.34 119.811 1152.01 124.931 1149.06 131.413L1106.38 228.391H1104.29V228.366Z" fill="white"/>
<path d="M1069.77 197.671C1067.02 178.805 1042.31 167.455 1021.93 168.363C1009.22 168.212 995.42 171.718 983.012 176.914C968.056 183.572 942.179 190.382 934.033 171.844C931.561 163.546 938.749 159.561 945.054 157.392C949.14 155.803 953.377 154.138 956.101 150.33C961.296 143.419 954.562 133.305 946.391 133.734C932.696 135.247 923.163 146.118 922.658 158.224C922.507 174.013 938.724 186.195 953.73 187.633C964.474 188.692 975.269 185.817 985.458 183.042C1004.3 177.241 1025.99 177.746 1043.82 185.741C1076.08 199.361 1060.46 236.513 1034.11 249.678C1021.5 256.841 999.783 258.683 984.827 257.548C921.069 252.907 870.274 181.504 917.992 125.284C944.373 96.4812 965.962 105.258 998.976 109.47C1023.64 111.286 1031.06 76.8334 1003.19 74.4625C980.616 75.648 960.338 96.5316 936.984 82.9119C924.852 75.8245 922.002 61.0698 928.459 48.2319C936.101 33.5275 952.822 30.8288 965.634 30.6775C1022.1 34.3094 1015.85 93.3285 1045.84 93.3032C1060.62 93.278 1068.31 74.2355 1063.11 61.4985C1060.89 52.3935 1046.16 40.8166 1037.59 50.3505C1030.68 61.8264 1049.97 64.9791 1053.86 72.8988C1059.53 83.5928 1047.85 95.8002 1037.56 87.5274C1028.69 80.6167 1031.08 78.0693 1013.76 52.1412C996.429 26.2132 953.024 12.3917 924.121 26.6924C892.368 41.5229 893.125 88.612 927.299 96.4055C949.493 101.475 972.772 87.0482 993.377 85.2575C999.178 85.2575 1009.06 87.1743 1005.43 94.9174C1003.26 99.533 985.534 100.971 976.454 100.315C873.805 90.0496 827.803 208.39 918.698 263.021C957.286 286.225 1024.73 279.238 1055.52 241.784C1061.1 235.05 1073.66 217.268 1069.77 197.722V197.671Z" fill="white"/>
</svg>
