<svg width="180" height="18" viewBox="0 0 180 18" fill="none" xmlns="http://www.w3.org/2000/svg">
<path fill-rule="evenodd" clip-rule="evenodd" d="M31.2606 2.57698C30.5735 2.30277 29.4838 2 28.1363 2C24.6965 2 22.2741 3.84533 22.2593 6.4836C22.2307 8.43011 23.9936 9.51125 25.3121 10.1603C26.6597 10.8235 27.1178 11.2564 27.1178 11.8475C27.1041 12.7554 26.0289 13.1739 25.026 13.1739C23.6353 13.1739 22.8901 12.9582 21.7577 12.4531L21.2991 12.2365L20.8116 15.2787C21.6286 15.6532 23.1338 15.9854 24.6965 16C28.3514 16 30.7309 14.1832 30.7591 11.3717C30.773 9.82896 29.8421 8.64684 27.8352 7.68086C26.6169 7.06077 25.8708 6.64265 25.8708 6.00819C25.8851 5.4314 26.5018 4.84062 27.8771 4.84062C29.0095 4.81169 29.8415 5.08552 30.4718 5.35954L30.7869 5.50345L31.2606 2.57698ZM18.6333 15.7981H15.15L17.3287 2.24569H20.8118L18.6333 15.7981ZM37.2808 7.20509C37.2808 7.20509 36.177 10.2184 35.8902 10.9969H38.7854C38.6422 10.3194 37.9826 7.07536 37.9826 7.07536L37.7391 5.90761C37.6366 6.20829 37.4884 6.62167 37.3884 6.90052L37.3882 6.90112C37.3205 7.08984 37.275 7.21677 37.2808 7.20509ZM37.4955 2.24569H40.1899L43 15.7979H39.7748C39.7748 15.7979 39.4592 14.2407 39.3592 13.7649H34.8869C34.7576 14.1252 34.1558 15.7979 34.1558 15.7979H30.5009L35.6749 3.37014C36.0334 2.49058 36.6646 2.24569 37.4955 2.24569ZM12.2406 2.24569L8.82929 11.4871L8.45652 9.61284C8.45642 9.6125 8.45632 9.61216 8.45622 9.61181L7.23823 3.38489C7.03765 2.51933 6.42126 2.27424 5.66163 2.24569H0.0573341L0 2.51952C1.36686 2.87115 2.58939 3.37785 3.66058 4.00786L6.76525 15.7837H10.4487L15.9239 2.24569H12.2406Z" fill="white"/>
<path fill-rule="evenodd" clip-rule="evenodd" d="M77.5067 3.0013C77.4822 3.00171 77.4594 3.0021 77.4387 3.00222L73 3.00226V16H77.2892V8.33453H77.5768L79.9679 16H83.1949L85.586 8.3402H85.8736V16H90.1628V3.00226L85.9545 3.00225C85.9218 3.00225 85.8863 3.00177 85.8481 3.00125C85.2488 2.99308 84.0127 2.97623 83.4999 4.69467C83.1812 5.76269 82.5957 7.75871 81.7433 10.6827H81.4195C80.6247 7.90923 80.0454 5.91321 79.6818 4.69467C79.1681 2.97322 77.9891 2.99314 77.5067 3.0013ZM96.322 10.6677V3.00226H91.9432V16H96.0939C96.0939 16 97.3543 15.8865 97.9188 14.6378L100.77 8.33453H101.112V16H105.491V3.00226H101.341C101.341 3.00226 100.137 3.1101 99.5727 4.36446L96.6642 10.6677H96.322ZM115.974 12.1282C118.097 12.1282 120.016 10.8974 120.626 9.17887H107.218V16H111.382V12.1282H115.974ZM106.999 3.00238H116.175C119.705 3.00238 121.411 5.96831 120.916 8.37335H112.326C109.728 8.37335 107.218 5.89612 106.999 3.00238Z" fill="white"/>
<path d="M164.706 16.3205C164.775 16.3829 164.85 16.4404 164.922 16.5004C163.571 17.3997 162.003 17.9145 160.383 17.9902C158.764 18.066 157.155 17.6997 155.726 16.9304C154.298 16.1612 153.104 15.0177 152.272 13.6216C151.44 12.2256 151 10.6293 151 9.0025C151 7.37573 151.44 5.77938 152.272 4.38335C153.104 2.98731 154.298 1.84383 155.726 1.07456C157.155 0.305293 158.764 -0.0609723 160.383 0.0147511C162.003 0.0904746 163.571 0.605353 164.922 1.50459C164.85 1.56457 164.775 1.62205 164.706 1.68454C163.662 2.59343 162.825 3.71673 162.251 4.97841C161.677 6.24008 161.381 7.6107 161.381 8.9975C161.381 10.3843 161.677 11.7549 162.251 13.0166C162.825 14.2783 163.662 15.4016 164.706 16.3105V16.3205ZM171.042 0.00999936C169.276 0.0059715 167.548 0.527856 166.078 1.50958C166.15 1.56957 166.225 1.62705 166.294 1.68953C167.338 2.59888 168.174 3.72232 168.747 4.98394C169.32 6.24556 169.617 7.61596 169.617 9.0025C169.617 10.389 169.32 11.7594 168.747 13.0211C168.174 14.2827 167.338 15.4061 166.294 16.3155C166.225 16.3779 166.15 16.4354 166.078 16.4954C167.243 17.2712 168.573 17.7626 169.962 17.9304C171.35 18.0982 172.758 17.9378 174.074 17.462C175.39 16.9862 176.576 16.2081 177.539 15.19C178.501 14.1719 179.213 12.9419 179.617 11.5985C180.021 10.255 180.107 8.83528 179.867 7.45275C179.627 6.07021 179.068 4.7632 178.234 3.63617C177.401 2.50915 176.317 1.59336 175.068 0.96199C173.819 0.330622 172.44 0.00118002 171.042 0V0.00999936ZM165.5 1.93696C165.383 2.02944 165.271 2.12191 165.161 2.21938C164.194 3.06396 163.418 4.10695 162.887 5.27795C162.355 6.44896 162.08 7.72074 162.08 9.0075C162.08 10.2943 162.355 11.566 162.887 12.737C163.418 13.908 164.194 14.951 165.161 15.7956C165.271 15.8931 165.383 15.9856 165.5 16.078C165.615 15.9856 165.729 15.8931 165.839 15.7956C166.806 14.951 167.582 13.908 168.113 12.737C168.645 11.566 168.92 10.2943 168.92 9.0075C168.92 7.72074 168.645 6.44896 168.113 5.27795C167.582 4.10695 166.806 3.06396 165.839 2.21938C165.729 2.12191 165.615 2.02944 165.5 1.93696Z" fill="white"/>
</svg>
