<svg width="15" height="16" viewBox="0 0 15 16" fill="none" xmlns="http://www.w3.org/2000/svg">
<path d="M13.5387 15.0696L13.4669 15.1437L13.3951 15.0696L9.40606 10.9541C8.52482 11.6053 7.44441 11.9889 6.27713 11.9889C3.30451 11.9889 0.9 9.50359 0.9 6.44444C0.9 3.3853 3.30451 0.9 6.27713 0.9C9.24976 0.9 11.6543 3.3853 11.6543 6.44444C11.6543 7.94871 11.0731 9.31368 10.1292 10.3129L14.0718 14.3804L14.1393 14.45L14.0718 14.5196L13.5387 15.0696ZM1.85388 6.44444C1.85388 8.96951 3.83716 11.0111 6.27713 11.0111C8.71711 11.0111 10.7004 8.96951 10.7004 6.44444C10.7004 3.91938 8.71711 1.87778 6.27713 1.87778C3.83716 1.87778 1.85388 3.91938 1.85388 6.44444Z" fill="black" stroke="black" stroke-width="0.2"/>
</svg>
