<svg width="65" height="70" viewBox="0 0 65 70" fill="none" xmlns="http://www.w3.org/2000/svg">
<path d="M42.0957 25.5927C52.4637 31.901 59.8798 46.3745 64.0229 68.8614C62.9727 69.3031 61.6797 69.5185 60.3928 69.4887C58.9778 69.4559 57.626 69.128 56.6527 68.5361C56.6447 68.5299 56.6363 68.524 56.6275 68.5181C56.6149 68.5097 56.6022 68.502 56.5894 68.495C55.0694 67.5789 53.1214 67.1355 51.2056 67.1355C49.3329 67.1355 47.4404 67.5592 45.9604 68.4337H45.959L45.8396 68.506C44.7688 69.1544 43.2661 69.4974 41.7364 69.4985C40.2228 69.4995 38.7538 69.1659 37.717 68.5359C37.7091 68.5299 37.7008 68.524 37.6922 68.5183C37.6795 68.5098 37.6667 68.5021 37.6538 68.495C36.134 67.5789 34.186 67.1348 32.2706 67.1344C30.3567 67.134 28.4223 67.5767 26.9297 68.4927C26.9174 68.4994 26.906 68.5062 26.8954 68.513C25.8255 69.1583 24.3289 69.4989 22.8051 69.4996C21.2921 69.5003 19.8228 69.166 18.7843 68.5358C18.7763 68.5298 18.768 68.5239 18.7594 68.5181C18.7467 68.5096 18.7339 68.5019 18.7209 68.4948C17.2011 67.5803 15.2524 67.137 13.3364 67.137C11.4656 67.137 9.5751 67.5597 8.097 68.4337H8.09374L7.97428 68.5061C6.9676 69.1162 5.58488 69.4527 4.15388 69.488C2.86882 69.5197 1.58976 69.3072 0.561562 68.8717C4.70191 46.3726 12.1193 31.8952 22.4892 25.5875C25.3429 26.7708 28.8746 27.3597 32.3677 27.3597C35.8557 27.3597 39.3352 26.7726 42.0957 25.5927ZM45.7509 68.5772C45.749 68.5791 45.7497 68.5783 45.7521 68.576L45.7509 68.5772ZM46.0943 68.4337C46.1004 68.4336 46.1027 68.4337 46.0986 68.4337H46.0943ZM27.1676 68.4322L27.1649 68.4322C27.1669 68.4322 27.1687 68.4322 27.1687 68.4322H27.1687H27.1686H27.1684H27.1676Z" stroke="white"/>
<path d="M38.4957 0.502854L38.4946 0.502889C36.5778 0.560639 34.1839 1.59497 33.5047 4.24849C33.4872 4.32003 33.4592 4.37476 33.4437 4.40225C33.4168 4.4709 33.3813 4.54361 33.3349 4.61389C33.2894 4.68413 33.2443 4.73826 33.1997 4.78685C33.1486 4.84263 33.0857 4.90172 33.0099 4.95416L33.0027 4.95917L33.0026 4.95911C32.9449 4.99756 32.8882 5.03057 32.8235 5.06208L32.8171 5.06605C32.7986 5.07741 32.7506 5.10668 32.6855 5.12938C32.6168 5.15375 32.5572 5.16008 32.5353 5.16214C32.512 5.1668 32.4763 5.17364 32.4349 5.17874C32.4146 5.18347 32.359 5.19598 32.2901 5.19598C32.2252 5.19598 32.1699 5.18741 32.1338 5.1808C32.1229 5.17881 32.1127 5.17677 32.1036 5.17491C32.0686 5.1737 32.0193 5.16885 31.9646 5.15321L31.9199 5.14045L31.9006 5.1308C31.7788 5.0924 31.6561 5.0333 31.5434 4.94633C31.4954 4.91091 31.4632 4.87589 31.4493 4.86053L31.4462 4.85707C31.385 4.80147 31.3045 4.7201 31.238 4.60917M38.4957 0.502854L31.6668 4.35195M38.4957 0.502854C40.4087 0.441089 42.8803 1.35862 43.8782 4.03231M38.4957 0.502854L44.3956 3.99322M31.238 4.60917L31.6668 4.35195M31.238 4.60917C31.238 4.60918 31.238 4.6092 31.238 4.60921L31.6668 4.35195M31.238 4.60917C31.2119 4.56561 31.191 4.52448 31.1733 4.48669M31.6668 4.35195C31.6491 4.32255 31.6344 4.29315 31.6197 4.26081M31.1733 4.48669L31.1766 4.49231C31.1782 4.49506 31.176 4.49138 31.1725 4.4844L31.6197 4.26081M31.1733 4.48669L31.1726 4.48554L31.1644 4.47179C31.1523 4.45125 31.1249 4.40436 31.1028 4.34345L31.0994 4.33416L31.0964 4.32474C30.1693 1.42262 27.5725 0.443056 25.6049 0.505792L25.6036 0.505834C23.7515 0.559988 21.4514 1.53673 20.6901 3.99978M31.1733 4.48669C31.1703 4.48027 31.1674 4.47394 31.1645 4.46772L31.6197 4.26081M31.6197 4.26081L20.6901 3.99978M20.6901 3.99978C20.6822 3.95979 20.6743 3.91974 20.6665 3.87963L20.1758 3.97553M20.6901 3.99978L25.589 0.00604582C23.5778 0.0648541 20.9814 1.14689 20.1758 3.97553M20.6901 3.99978C20.6786 4.03701 20.6675 4.07458 20.6567 4.11249L20.1758 3.97553M20.6901 3.99978C20.9586 5.35801 21.2655 6.64767 21.594 8.01329L21.594 8.01338C22.592 12.1647 23.6265 16.4957 23.6395 23.3498M20.1758 3.97553C20.4522 5.38984 20.7697 6.72474 21.1079 8.13025C22.1194 12.3379 23.16 16.696 23.1394 23.6852M23.6395 23.3498C23.5366 23.309 23.4347 23.2672 23.3341 23.2247L23.1394 23.6852M23.6395 23.3498C23.6397 23.4614 23.6397 23.5737 23.6393 23.6866L23.1394 23.6852M23.6395 23.3498C26.1107 24.3313 29.2361 24.8319 32.3603 24.8333C35.483 24.8347 38.559 24.3374 40.9374 23.3603M23.1394 23.6852C28.3262 25.8787 36.4417 25.8846 41.4376 23.6911M41.4376 23.6911L40.9376 23.6925C40.9373 23.5811 40.9372 23.4704 40.9374 23.3603M41.4376 23.6911C41.417 16.6959 42.458 12.3353 43.4694 8.12446M41.4376 23.6911L41.2366 23.2332C41.1382 23.2765 41.0384 23.3188 40.9374 23.3603M40.9374 23.3603C40.9501 16.4976 41.9851 12.163 42.9832 8.00768M43.4694 8.12446L42.9832 8.00778C42.9832 8.00775 42.9832 8.00772 42.9832 8.00768M43.4694 8.12446C43.8046 6.72776 44.1192 5.39873 44.3956 3.99322M43.4694 8.12446L42.9832 8.00768M42.9832 8.00768C43.3076 6.65634 43.6105 5.37679 43.8782 4.03231M44.3956 3.99322L43.9235 4.1579C43.9088 4.11562 43.8937 4.07376 43.8782 4.03231M44.3956 3.99322L43.905 3.89673C43.8961 3.942 43.8872 3.9872 43.8782 4.03231" stroke="white"/>
<path d="M15.8672 43.1577L15.4999 43.7736C12.4644 48.8637 10.5686 54.5513 9.94287 60.4447L9.86717 61.1578" stroke="white"/>
<path d="M19 47.8311V47.8311C16.9372 51.1601 15.682 54.9256 15.3349 58.8265V58.8265" stroke="white"/>
</svg>
