<svg width="304" height="375" viewBox="0 0 304 375" fill="none" xmlns="http://www.w3.org/2000/svg">
<path opacity="0.1" d="M210.242 202.295L209.495 203.064C205.417 207.265 202.197 212.068 200.49 217.674L200.489 217.675C199.307 221.525 198.912 225.529 198.749 229.611C198.683 231.259 198.655 232.934 198.627 234.617C198.586 237.065 198.544 239.529 198.386 241.948C198.386 241.948 198.386 241.948 198.386 241.948L197.887 241.916C197 255.585 192.068 268.885 184.162 280.046L210.242 202.295ZM210.242 202.295C215.876 196.752 222.991 192.312 230.025 188.527C231.556 187.705 233.107 186.889 234.665 186.069C245.904 180.155 257.518 174.044 264.958 163.734L264.959 163.732C266.633 161.392 268.192 158.627 268.192 155.603M210.242 202.295L268.192 155.603M255.533 142.935C245.957 139.667 235.801 138.446 225.756 137.818C210.18 136.839 194.099 137.258 179.388 142.755C154.517 152.043 136.931 174.535 125.031 198.1C106.52 234.739 98.679 275.725 92.8224 316.278L92.7332 316.896L93.3551 316.848C112.569 315.388 131.616 311.617 149.94 305.665L149.941 305.665C157.552 303.187 164.012 300.582 170.326 295.507C175.757 291.142 180.554 286.017 184.571 280.335L255.372 143.408M255.533 142.935L255.372 143.408M255.533 142.935C255.533 142.935 255.533 142.935 255.533 142.935L255.372 143.408M255.533 142.935C258.497 143.943 261.646 145.473 264.061 147.556C266.48 149.641 268.202 152.319 268.192 155.603M255.372 143.408C261.227 145.4 267.711 149.422 267.692 155.602H268.192C268.192 155.602 268.192 155.603 268.192 155.603M254.887 183.54L254.889 183.553C245.798 186.869 235.561 191.071 228.826 198.525L228.826 198.525C223.561 204.364 223.971 211.39 227.399 216.889C230.813 222.366 237.248 226.387 244.146 226.311L244.148 226.311C246.147 226.283 248.127 226.04 250.076 225.788L250.413 225.745C252.255 225.507 254.069 225.273 255.889 225.204L255.891 225.204C263.086 224.912 271.473 227.127 276.156 232.735C277.584 234.45 278.308 236.166 278.517 237.838C278.727 239.512 278.426 241.174 277.755 242.784C276.408 246.018 273.589 248.997 270.583 251.315C257.089 261.687 240.089 264.087 224.569 256.866C217.078 253.363 210.674 247.783 206.63 240.942L205.896 239.701L205.704 241.13L194.531 324.077H92.3013H91.8597L91.8051 324.516C89.0651 346.519 87.5058 366.594 86.3091 382.001C86.1255 384.364 85.9505 386.618 85.781 388.752C80.5329 454.69 76.6137 484.749 45.9634 512.007C16.4125 536.138 -13.5299 534.442 -33.8836 519.582C-54.2649 504.701 -65.1094 476.57 -56.3296 447.648C-52.0043 435.682 -44.4756 426.438 -36.382 420.452C-28.2705 414.453 -19.653 411.767 -13.1575 412.801C-9.92239 413.316 -7.22443 414.75 -5.34587 417.146C-3.46472 419.546 -2.36647 422.96 -2.42953 427.504C-2.55596 436.612 -7.34985 450.132 -19.5756 468.632L-19.5916 468.656L-19.6048 468.682C-23.3202 476.043 -25.3895 482.834 -26.06 488.629C-26.7295 494.417 -26.0077 499.251 -24.0898 502.66C-22.1574 506.094 -19.0218 508.052 -14.9939 508.047C-11.0009 508.043 -6.19212 506.112 -0.840637 501.935C20.5406 485.265 29.2472 457.979 35.141 427.885L35.1411 427.885C36.3582 421.648 37.4476 409.66 38.8683 394.027C39.0183 392.377 39.172 390.686 39.3299 388.957C40.9853 370.829 43.1088 348.467 46.3214 324.644L46.3978 324.077H45.8259H-81.5V320.742C-71.0444 320.729 -62.5581 317.955 -56.1083 312.394C-49.6182 306.798 -46.4033 298.712 -46.4033 288.218V38.9604C-46.4033 28.4645 -49.6184 19.9545 -56.0815 13.5L-56.082 13.4995C-62.5477 7.06126 -71.0248 3.85041 -81.5 3.83513V0.5H55.7256V3.83507H54.4892C43.9798 3.83507 35.4587 7.04561 28.9956 13.5L28.9951 13.5005C22.5327 19.973 19.3174 28.4641 19.3174 38.9604V289.952C19.3174 299.251 21.571 306.544 26.167 311.701C30.2854 316.347 37.1326 318.838 46.5752 319.34L47.0326 319.364L47.0968 318.91C51.0203 291.16 56.4561 261.763 64.3686 234.985C72.2824 208.203 82.6629 184.078 96.456 166.84C127.87 129.567 172.377 120.085 211.371 121.017C250.372 121.949 283.766 133.3 292.804 137.57L293.017 137.118L292.804 137.57C297.312 139.698 300.659 142.354 302.321 145.407C303.962 148.423 303.997 151.895 301.742 155.796C299.47 159.726 294.874 164.084 287.259 168.757C279.653 173.426 269.073 178.387 254.887 183.54Z" stroke="white"/>
</svg>
