<svg width="418" height="575" viewBox="0 0 418 575" fill="none" xmlns="http://www.w3.org/2000/svg">
<path opacity="0.1" d="M149.185 0.5V4.19434H147.805C136.433 4.19434 127.216 7.66821 120.227 14.6484H120.226C113.237 21.6482 109.758 30.8318 109.758 42.1885V313.979C109.758 324.042 112.197 331.927 117.165 337.501V337.502C121.614 342.521 129.016 345.217 139.236 345.76L139.694 345.784L139.758 345.33C144.007 315.279 149.894 283.445 158.463 254.445C167.034 225.439 178.279 199.306 193.223 180.633L193.222 180.632C227.251 140.261 275.462 129.995 317.693 131.004C358.613 131.982 393.834 143.548 404.898 148.476L405.894 148.932C410.779 151.238 414.413 154.119 416.219 157.437C418.004 160.716 418.039 164.491 415.591 168.727C413.126 172.991 408.142 177.714 399.894 182.776C391.653 187.834 380.193 193.207 364.829 198.788L364.831 198.802C354.986 202.392 343.91 206.94 336.625 215.003H336.624C330.938 221.31 331.38 228.897 335.084 234.839C338.774 240.759 345.73 245.104 353.184 245.022H353.186C355.348 244.992 357.49 244.729 359.601 244.457C361.72 244.184 363.806 243.903 365.899 243.824H365.9C373.577 243.513 382.513 245.833 387.639 251.712L387.88 251.994C389.431 253.857 390.218 255.721 390.446 257.54C390.675 259.361 390.347 261.169 389.618 262.918C388.156 266.429 385.096 269.66 381.838 272.172C367.214 283.412 348.788 286.014 331.965 278.188C323.847 274.391 316.906 268.343 312.521 260.928L311.788 259.688L311.596 261.115L299.492 350.973H188.31L188.255 351.411C184.833 378.891 183.111 403.595 181.731 420.969C176.049 492.363 171.806 524.931 138.606 554.458C106.59 580.606 74.1407 578.775 52.0811 562.669C29.9963 546.545 18.2462 516.065 27.7578 484.731C32.4443 471.763 40.6032 461.745 49.375 455.258C58.164 448.758 67.5077 445.844 74.5566 446.966C78.0682 447.525 80.9993 449.082 83.041 451.687C85.0854 454.294 86.2764 458.002 86.208 462.929C86.0708 472.803 80.8742 487.452 67.6338 507.487L67.6182 507.512L67.6045 507.537C63.5829 515.504 61.3445 522.853 60.6191 529.123C59.8947 535.385 60.676 540.61 62.7471 544.291C64.8326 547.997 68.2146 550.108 72.5605 550.104C76.8717 550.099 82.0709 548.014 87.8623 543.494C111.003 525.453 120.429 495.92 126.812 463.333V463.332C128.268 455.868 129.556 440.793 131.347 421.184C133.139 401.554 135.439 377.336 138.918 351.539L138.995 350.973H0.5V347.277C11.8337 347.27 21.027 344.269 28.0107 338.248C35.0276 332.198 38.5058 323.455 38.5059 312.101V42.1885C38.5058 30.8323 35.0277 21.6286 28.0381 14.6484L28.0371 14.6475L27.374 14.0029C20.4597 7.4618 11.4983 4.20221 0.5 4.19434V0.5H149.185ZM333.267 149.279C316.402 148.219 298.994 148.673 283.071 154.623C256.154 164.676 237.115 189.02 224.23 214.533C204.188 254.203 195.699 298.579 189.356 342.492L189.268 343.109L189.89 343.062C210.693 341.481 231.315 337.398 251.156 330.954V330.953C259.397 328.27 266.386 325.451 273.218 319.961C278.728 315.532 283.637 310.38 287.811 304.686L288.636 303.54C296.978 291.764 302.283 277.797 303.485 263.39L303.589 261.994C303.879 257.574 303.807 253.021 303.982 248.635C304.159 244.213 304.587 239.874 305.868 235.7L305.869 235.699C307.721 229.621 311.211 224.414 315.631 219.861L316.394 219.074C322.506 213.047 330.234 208.222 337.871 204.112L337.872 204.113C351.499 196.792 366.521 189.98 375.688 177.277L375.688 177.275C377.444 174.821 379.077 171.943 379.178 168.8L379.183 168.495C379.193 164.956 377.336 162.067 374.724 159.814C372.113 157.564 368.708 155.908 365.501 154.817H365.5C355.136 151.281 344.143 149.959 333.267 149.279Z" stroke="white"/>
</svg>
