<svg width="70" height="67" viewBox="0 0 70 67" fill="none" xmlns="http://www.w3.org/2000/svg">
	<path d="M34.498 3.4707C34.8347 4.7201 35.3668 5.81518 36.1494 6.71289C37.1461 7.85608 38.5096 8.63864 40.2852 9.03125C39.692 9.20636 39.1614 9.38115 38.6865 9.56543C37.5997 9.98724 36.7685 10.4719 36.1309 11.1572C35.4917 11.8442 35.0828 12.6942 34.7725 13.7842C34.6801 14.1087 34.596 14.4575 34.5166 14.833C34.19 13.5337 33.6878 12.3531 32.9131 11.3711C32.0354 10.2586 30.8358 9.43551 29.2266 8.96582C30.7546 8.48257 31.9481 7.70523 32.8467 6.65625C33.616 5.75799 34.1473 4.68255 34.498 3.4707Z" stroke="#F22EA9"/>
	<path d="M8.49805 33.2871C8.83609 34.4745 9.37093 35.5162 10.1582 36.3691C11.1355 37.4278 12.4633 38.155 14.1816 38.5322C13.6335 38.6871 13.1398 38.8419 12.6953 39.0049C11.611 39.4024 10.7797 39.8592 10.1406 40.5078C9.49835 41.1598 9.08638 41.9681 8.77441 43.0029C8.68112 43.3125 8.59663 43.6458 8.5166 44.0039C8.18883 42.7687 7.68438 41.6448 6.9043 40.7109C6.04248 39.6793 4.87389 38.9128 3.31641 38.4658C4.79507 38.0082 5.95631 37.2864 6.83691 36.3154C7.61105 35.4619 8.1458 34.4392 8.49805 33.2871Z" stroke="#F22EA9"/>
	<path d="M61.498 45.4707C61.8347 46.7201 62.3668 47.8152 63.1494 48.7129C64.1461 49.8561 65.5096 50.6386 67.2852 51.0312C66.692 51.2064 66.1614 51.3811 65.6865 51.5654C64.5997 51.9872 63.7685 52.4719 63.1309 53.1572C62.4917 53.8442 62.0828 54.6942 61.7725 55.7842C61.6801 56.1087 61.596 56.4575 61.5166 56.833C61.19 55.5337 60.6878 54.3531 59.9131 53.3711C59.0354 52.2586 57.8358 51.4355 56.2266 50.9658C57.7546 50.4826 58.9481 49.7052 59.8467 48.6562C60.616 47.758 61.1473 46.6826 61.498 45.4707Z" stroke="#F22EA9"/>
	<line x1="24.0781" y1="20.3566" x2="31.2968" y2="31.7003" stroke="black"/>
	<line x1="34.5" y1="21" x2="34.5" y2="28" stroke="black"/>
	<line x1="44.6909" y1="21.943" x2="37.4721" y2="32.2555" stroke="black"/>
	<line x1="45.9277" y1="16.2226" x2="47.9902" y2="13.1289" stroke="black"/>
	<line x1="42.9299" y1="31.5846" x2="49.1174" y2="26.4284" stroke="black"/>
	<line x1="41" y1="36.5" x2="48" y2="36.5" stroke="black"/>
	<line x1="54" y1="36.5" x2="63" y2="36.5" stroke="black"/>
	<line x1="45.6125" y1="42.9125" x2="49.7375" y2="46.0062" stroke="black"/>
	<line x1="39.5361" y1="45.0904" x2="48.8173" y2="58.4966" stroke="black"/>
	<line x1="35.5" y1="47" x2="35.5" y2="53" stroke="black"/>
	<line x1="35.5" y1="59" x2="35.5" y2="62" stroke="black"/>
	<line x1="32.3159" y1="45.6617" x2="25.0971" y2="55.9742" stroke="black"/>
	<line x1="24.9781" y1="44.7506" x2="17.7594" y2="49.9069" stroke="black"/>
	<line x1="28" y1="38.5" x2="22" y2="38.5" stroke="black"/>
	<line x1="24.4101" y1="33.416" x2="15.1289" y2="27.2285" stroke="black"/>
	<line x1="17.7461" y1="61.459" x2="23.9336" y2="65.584" stroke="black"/>
	<line x1="23.0154" y1="61.1561" x2="18.8904" y2="66.3123" stroke="black"/>
	<line x1="55.9024" y1="19.1777" x2="62.0899" y2="23.3027" stroke="black"/>
	<line x1="61.1717" y1="18.8748" x2="57.0467" y2="24.0311" stroke="black"/>
</svg>
	